<?xml version="1.0" encoding="UTF-8"?>
<svg id="Layer_1" data-name="Layer 1" xmlns="http://www.w3.org/2000/svg" xmlns:xlink="http://www.w3.org/1999/xlink" viewBox="0 0 1974 562">
  <defs>
    <style>
      .cls-1, .cls-2 {
        stroke: #fff;
        stroke-miterlimit: 10;
        stroke-width: 6.5px;
      }

      .cls-1, .cls-2, .cls-3 {
        fill: none;
      }

      .cls-2 {
        stroke-linecap: round;
      }

      .cls-4 {
        fill: #fff;
      }

      .cls-5 {
        fill: #3eb2e6;
      }

      .cls-6 {
        fill: #87c877;
      }

      .cls-7 {
        clip-path: url(#clippath);
      }
    </style>
    <clipPath id="clippath">
      <rect class="cls-3" x=".39" y="107.39" width="324.92" height="324.87"/>
    </clipPath>
  </defs>
  <g id="Logo">
    <g id="Propeller">
      <path class="cls-6" d="m853.84,214h31.38c11.04,0,20,8.96,20,20v100.38h-31.38c-11.04,0-20-8.96-20-20v-100.38h0Z"/>
      <path class="cls-5" d="m905.22,334.38h31.38c11.04,0,20,8.96,20,20v100.38h-31.38c-11.04,0-20-8.96-20-20v-100.38h0Z"/>
    </g>
    <g id="Text">
      <g>
        <path class="cls-4" d="m1266.2,218.05l94.41-3.55v31.47l-27.48,8.86,7.98-6.65-56.29,205.65h-66.93l-47.87-190.58,11.97.44-54.07,190.14h-66.93l-52.3-202.99,6.65,5.76-27.04-6.65v-31.91l104.6-3.55v31.47l-32.35,8.86,6.65-4.88,37.23,166.65h-10.19l52.74-199,63.38-3.55,48.75,204.77h-9.31l40.78-167.54,5.76,5.76-30.14-7.09v-31.91Z"/>
        <path class="cls-4" d="m1462.1,416.61l-4.43-5.32,34.13,9.75v31.91h-121.44v-31.91l34.13-9.75-4.43,5.32v-161.77l3.99,3.99-33.68-9.31v-31.91l91.75-3.1v202.11Zm-32.8-236.68c-10.93,0-19.72-3.1-26.37-9.31s-9.97-15.07-9.97-26.59c0-12.41,3.47-21.64,10.42-27.7,6.94-6.05,15.73-9.09,26.37-9.09s18.91,3.03,25.71,9.09c6.79,6.06,10.19,15.15,10.19,27.26s-3.48,21.21-10.42,27.26c-6.95,6.06-15.59,9.09-25.93,9.09Z"/>
        <path class="cls-4" d="m1511.3,452.96v-31.91l37.23-10.64-7.54,8.86v-168.87l7.54,10.19-37.23-11.08v-31.91l78.01-3.55,7.98,42.55-7.98-3.1c14.18-14.47,29.25-25.19,45.21-32.13,15.96-6.94,31.17-10.42,45.65-10.42,20.09,0,36.79,6.28,50.08,18.84,13.3,12.56,19.79,31.54,19.5,56.95v132.52l-5.76-8.86,35.46,10.64v31.91h-118.34v-31.91l33.68-9.75-7.09,9.31v-120.56c0-14.47-3.18-25.11-9.53-31.91-6.36-6.79-14.7-10.19-25.04-10.19-7.98,0-16.7,2.22-26.15,6.65-9.46,4.43-18.77,11.08-27.92,19.94l3.99-9.31v145.38l-5.76-9.31,32.35,9.75v31.91h-118.34Z"/>
        <path class="cls-4" d="m1797.62,452.96v-31.91l35.46-10.19-5.76,6.65v-164.43l5.76,6.65h-36.79v-33.24l38.12-9.75-7.09,9.31v-28.37c0-31.61,8.42-55.03,25.26-70.25,16.84-15.21,39.45-22.83,67.81-22.83,8.27,0,16.77.74,25.49,2.22,8.71,1.48,18.1,3.55,28.14,6.21l-8.87,41.22c-5.62-1.77-11.38-3.17-17.29-4.21-5.91-1.03-11.52-1.55-16.84-1.55-12.12,0-22.09,3.32-29.92,9.97-7.83,6.65-11.75,17.95-11.75,33.91v33.68l-7.98-7.53h63.38l-1.33,41.22h-60.28l6.21-6.65v164.43l-5.76-6.65,41.22,10.19v31.91h-127.2Z"/>
      </g>
      <g>
        <path class="cls-4" d="m439.82,452.96v-31.91l35.46-10.19-5.76,6.65v-164.43l5.76,6.65h-36.79v-33.24l38.12-9.75-7.09,9.31v-28.37c0-31.61,8.42-55.03,25.26-70.25,16.84-15.21,39.45-22.83,67.81-22.83,8.27,0,16.77.74,25.49,2.22,8.71,1.48,18.1,3.55,28.14,6.21l-8.86,41.22c-5.62-1.77-11.38-3.17-17.29-4.21-5.91-1.03-11.52-1.55-16.84-1.55-12.12,0-22.09,3.32-29.92,9.97-7.83,6.65-11.75,17.95-11.75,33.91v33.68l-7.98-7.53h63.38l-1.33,41.22h-60.28l6.21-6.65v164.43l-5.76-6.65,41.22,10.19v31.91h-127.2Z"/>
        <path class="cls-4" d="m672.51,276.11c0,7.09,3.03,12.63,9.09,16.62,6.05,3.99,13.74,7.46,23.05,10.42,9.31,2.96,19.2,6.14,29.7,9.53,10.48,3.4,20.39,7.61,29.7,12.63,9.31,5.03,16.91,11.82,22.83,20.39,5.91,8.57,8.86,19.65,8.86,33.24,0,17.73-4.73,32.43-14.18,44.1-9.46,11.68-22.31,20.46-38.56,26.37-16.25,5.91-34.43,8.86-54.52,8.86-12.12,0-24.82-1.04-38.12-3.1-13.3-2.07-26.89-4.88-40.78-8.42l3.1-66.93h39l4.88,39-5.32-7.53c5.91,1.77,12.41,3.18,19.5,4.21,7.09,1.04,13.44,1.55,19.06,1.55,7.38,0,14.4-1.03,21.05-3.1,6.65-2.06,12.11-5.02,16.4-8.86,4.28-3.84,6.43-8.86,6.43-15.07,0-7.38-2.88-13.14-8.64-17.29-5.76-4.13-13.3-7.76-22.6-10.86-9.31-3.1-19.13-6.21-29.47-9.31-10.35-3.1-20.17-7.31-29.47-12.63s-16.92-12.33-22.83-21.05c-5.91-8.71-8.86-20.31-8.86-34.79,0-17.13,4.28-31.09,12.85-41.88,8.57-10.78,20.01-18.68,34.35-23.71,14.33-5.02,30.06-7.53,47.2-7.53,12.11,0,24.97,1.11,38.56,3.32,13.59,2.22,27.62,5.25,42.11,9.09l-3.1,59.83h-38.56l-7.53-35.01,8.42,8.86c-13.89-3.25-26.3-4.88-37.23-4.88s-19.36,2.07-26.15,6.21c-6.8,4.14-10.19,10.05-10.19,17.73Z"/>
      </g>
    </g>
    <rect id="Padding_transparent" class="cls-3" x="-109" y="-2" width="564" height="564"/>
    <g id="Kroete">
      <g>
        <path id="Square_Blue" data-name="Square Blue" class="cls-5" d="m336.2,188.39v254.76H81.27c12.03,6.9,25.94,10.85,40.72,10.85h225v-224.97c0-14.75-3.93-28.63-10.8-40.63"/>
        <path id="Square_Green" data-name="Square Green" class="cls-6" d="m325.46,432.44H87.6c-47.88,0-87.06-39.17-87.06-87.05V107.56h237.86c47.88,0,87.06,39.17,87.06,87.05v237.83Z"/>
      </g>
      <g id="Kroete_line">
        <g class="cls-7">
          <path class="cls-1" d="m260.41,268.96c9.33-13.85,29.79-39.77,64.87-54.12,51.09-20.9,126.48-14.53,159.91,35.95,20.54,31.01,17.19,66.51,14.46,82.63"/>
          <path class="cls-1" d="m245.54,263.18c5.36,1.83,12.98,5.41,17.77,12.81,9.41,14.53-.54,28.96,9.09,42.14,5.56,7.61,15.99,12.41,25.21,11.98,16.66-.78,19.18-18.17,38.02-21.07,15.53-2.39,28.46,7.18,29.34,7.85,13.62,10.39,8.79,22.48,21.07,31.4,14.47,10.51,35.57,4.2,38.43,3.31,19.07-5.98,18.61-18.39,36.78-23.55,17.45-4.96,38.64.95,40.91,9.5.72,2.69-.34,6.06-2.48,7.85-5.68,4.76-15.17-5.05-27.69-5.37-16.58-.43-19.76,16.24-41.32,24.79-1.79.71-25.65,9.8-46.28,0-24.53-11.65-21.85-39.17-39.67-42.56-16.39-3.12-24.56,19.04-47.93,20.66-16.28,1.13-30.48-8.35-40.49-17.35"/>
          <path class="cls-2" d="m195.54,189.63c18.03.58,55.07,3.11,64.6,16.84.61.88,1.1,1.75,1.1,1.75,6.12,11.52.47,29.13-4.13,38.01-7.38,14.23-12.17,12.57-13.18,20.62-1.24,9.79,6.01,12.99,11.94,31.44,3.27,10.16,6.82,21.16,2.07,26.03-4.01,4.1-10.21-.08-31.82-2.89-21.52-2.8-27.07-1.19-31.2-6.4-4.73-5.98-3.01-15.18-.83-26.86,3.06-16.37,8.37-20.58,5.79-24.79-3.9-6.36-18.68-1.08-46.49,1.45-1.71.16-25.47,2.22-51.65,0-28.51-2.42-42.77-3.62-51.65-13.63-13.45-15.16-13.32-45.97,1.24-60.73.95-.97,1.77-1.56,2.5-2.12,11.23-8.73,24.4-8.91,45.43-7.79,16.55.88,31.5,2.23,44.63,3.72"/>
          <path class="cls-2" d="m153.8,210.71c1.16,1.58,5.78,7.52,13.64,8.68,11.32,1.67,19.23-8.14,20.66-9.92,8.16-10.11,5.77-22.48,5.37-24.38"/>
          <path class="cls-2" d="m147.6,174.35c3.88,0,9.68.26,16.53,1.65,17.81,3.61,27.9,11.82,29.34,9.92,1.29-1.71-5.98-9.49-12.4-14.46-2.26-1.75-13.44-10.42-21.49-7.85-.85.27-2.91.93-4.55,2.89-1.97,2.36-2.08,5.15-2.07,6.2"/>
          <path class="cls-1" d="m263.3,331.35c-9.44,3.17-22.62,9.47-32.64,22.31-6.13,7.85-15.69,24.04-10.33,30.99,1.38,1.8,3.59,2.76,19.01,3.72,9.54.59,17.59.78,23.55.83"/>
          <path class="cls-1" d="m221.16,385.47c-10.43,2.32-18.98-.36-20.66-4.96-2.15-5.89,7.42-13.83,8.68-14.87,6.88-5.71,14.6-6.77,18.18-7.02"/>
          <path class="cls-1" d="m296.77,342.92c-4.1,5.45-12.38,16.44-23.14,30.57-15.87,20.86-20.53,26.76-18.59,32.64,3.42,10.38,24.52,12.05,30.99,12.39"/>
          <path class="cls-1" d="m270.33,416.05c-15.7,3.48-27.53.94-28.92-3.72-1.29-4.3,5.94-11.69,16.94-17.35"/>
          <path class="cls-2" d="m285.82,417.1c-1.94,5.08-1.2-.03,1.86,3.49,5.45,6.26,17.2,4.52,18.59.83,1.34-3.53-6.52-9.56-8.68-11.16"/>
          <path class="cls-1" d="m305.87,418.53c7.01,1.12,17.81,2.26,30.99,1.24,14.07-1.09,21.62-1.78,26.86-7.44,2.2-2.37,5.11-6.83,4.96-29.75-.06-8.98-.59-20.81-2.48-34.71"/>
          <path class="cls-2" d="m210.83,253.26c2.13-.58,4.9-1.56,7.85-3.31,3.93-2.32,6.61-5.04,8.26-7.02"/>
          <path class="cls-2" d="m224.05,235.91c.94,1.38,2.06,3.31,2.89,5.78,1.13,3.35,1.29,6.3,1.24,8.26"/>
          <path class="cls-4" d="m158.06,183.54c-.08,0-.16,0-.25.01-2.51.3-4.09,5.31-4.01,9.03.07,3.83,1.94,8.86,4.52,9.03.04,0,.09,0,.13,0,2.56,0,5.45-4.72,5.38-9.03-.06-4.4-3.21-9.04-5.78-9.04Z"/>
        </g>
      </g>
    </g>
  </g>
</svg>