<svg viewBox="0 0 512 512" xmlns="http://www.w3.org/2000/svg" fill="currentColor"><path d="m500.1 399.8 10.7 21.5c2.9 5.9.5 13.1-5.4 16.1l-63.3 32.2c-12.1 6-27 .8-32.6-11.7l-65.1-145.9h-160.4c-12 0-22.2-8.9-23.8-20.8-34.5-258.6-31.9-238.8-32.2-243.2 0-27.2 22.5-49 49.9-48 24.8 1 45 21.1 46 45.9 1.1 25.2-17.3 46.3-41.4 49.6l9.7 72.5h147.8c6.6 0 12 5.4 12 12v24c0 6.6-5.4 12-12 12h-141.4l6.4 48h155a24 24 0 0 1 21.9 14.2l61.2 137.2 40.8-21c5.9-3 13.2-.5 16.1 5.4zm-186.8-39.8h-11.6c-11.2 59.1-63.3 104-125.7 104-70.6 0-128-57.4-128-128 0-43.8 22.1-82.5 55.7-105.6l-6.9-51.6c-57.4 29.1-96.8 88.6-96.8 157.2 0 97 79 176 176 176 70.6 0 131.6-41.8 159.6-101.9z"/></svg>